<svg width="32" height="32" viewBox="0 0 32 32" fill="none" xmlns="http://www.w3.org/2000/svg">
<g clip-path="url(#clip0)">
<path d="M27.25 0C25.6991 0 24.4375 1.26163 24.4375 2.8125C24.4375 3.44156 24.6524 4.017 25.0028 4.486L20.4158 9.46325C20.2013 9.41069 19.9805 9.375 19.75 9.375C19.1742 9.375 18.6394 9.55013 18.1931 9.84813L14.9222 7.39563C15.0052 7.13069 15.0625 6.85444 15.0625 6.5625C15.0625 5.01163 13.8009 3.75 12.25 3.75C10.6991 3.75 9.4375 5.01163 9.4375 6.5625C9.4375 6.85444 9.49481 7.13069 9.57781 7.39563L6.30688 9.84813C5.86063 9.55013 5.32575 9.375 4.75 9.375C3.19913 9.375 1.9375 10.6366 1.9375 12.1875C1.9375 13.7384 3.19913 15 4.75 15C6.30087 15 7.5625 13.7384 7.5625 12.1875C7.5625 11.8956 7.50519 11.6193 7.42219 11.3544L10.6931 8.90187C11.1393 9.19987 11.6742 9.375 12.25 9.375C12.8258 9.375 13.3606 9.19987 13.8069 8.90187L17.0778 11.3544C16.9948 11.6193 16.9375 11.8956 16.9375 12.1875C16.9375 13.7384 18.1991 15 19.75 15C21.3009 15 22.5625 13.7384 22.5625 12.1875C22.5625 11.5584 22.3476 10.983 21.9972 10.514L26.5842 5.53675C26.7987 5.58931 27.0195 5.625 27.25 5.625C28.8009 5.625 30.0625 4.36337 30.0625 2.8125C30.0625 1.26163 28.8009 0 27.25 0Z" fill="#FF4A3D"/>
<path d="M14.125 15H10.375C9.85681 15 9.4375 15.4193 9.4375 15.9375V28.25H15.0625V15.9375C15.0625 15.4193 14.6432 15 14.125 15Z" fill="#FF4A3D"/>
<path d="M21.625 18.75H17.875C17.3568 18.75 16.9375 19.1693 16.9375 19.6875V28.25H22.5625V19.6875C22.5625 19.1693 22.1432 18.75 21.625 18.75Z" fill="#FF4A3D"/>
<path d="M29.125 11.25H25.375C24.8568 11.25 24.4375 11.6693 24.4375 12.1875V28.25H30.0625V12.1875C30.0625 11.6693 29.6432 11.25 29.125 11.25Z" fill="#FF4A3D"/>
<path d="M6.625 20.625H2.875C2.35681 20.625 1.9375 21.0443 1.9375 21.5625V28.25H7.5625V21.5625C7.5625 21.0443 7.14319 20.625 6.625 20.625Z" fill="#FF4A3D"/>
<path d="M31.0625 30.125C26.8759 30.125 24.9544 30.125 24.1956 30.125C23.8487 30.125 23.7247 30.125 23.7257 30.125C22.3442 30.125 17.2024 30.125 0.9375 30.125C0.419312 30.125 0 30.5443 0 31.0625C0 31.5807 0.419312 32 0.9375 32C12.2825 32 20.4644 32 31.0625 32C31.5807 32 32 31.5807 32 31.0625C32 30.5443 31.5807 30.125 31.0625 30.125Z" fill="#FF4A3D"/>
</g>
<defs>
<clipPath id="clip0">
<rect width="32" height="32" fill="white"/>
</clipPath>
</defs>
</svg>
