<svg width="32" height="32" viewBox="0 0 32 32" fill="none" xmlns="http://www.w3.org/2000/svg">
<g clip-path="url(#clip0)">
<path d="M16 0C7.17755 0 0 7.17755 0 16C0 24.8224 7.17755 32 16 32C24.8224 32 32.0001 24.8224 32.0001 16C32.0001 7.17755 24.8224 0 16 0ZM28.5124 11.8375C28.1005 11.7083 27.6628 11.6384 27.2089 11.6384C26.3538 11.6384 25.556 11.8867 24.8821 12.3136C23.8976 9.95028 21.9964 8.0624 19.6249 7.0937C20.0608 6.41497 20.3148 5.60891 20.3148 4.74404C20.3148 4.30296 20.2484 3.87735 20.1261 3.4758C24.0714 4.77894 27.1981 7.89722 28.5124 11.8375ZM11.7705 3.5097C11.6547 3.90141 11.5915 4.31548 11.5915 4.74419C11.5915 5.62158 11.8528 6.43861 12.3003 7.12338C9.9476 8.10756 8.0676 10.0009 7.09904 12.3617C6.40976 11.9051 5.58429 11.6384 4.69733 11.6384C4.28115 11.6384 3.87889 11.6982 3.49746 11.8075C4.80595 7.91579 7.88371 4.82931 11.7705 3.5097ZM3.49746 20.1925C3.87889 20.3018 4.28115 20.3616 4.69733 20.3616C5.58429 20.3616 6.40976 20.0949 7.09904 19.6383C8.0676 21.9991 9.9476 23.8924 12.3002 24.8766C11.8526 25.5614 11.5914 26.3784 11.5914 27.2558C11.5914 27.6845 11.6545 28.0986 11.7703 28.4903C7.88371 27.1707 4.80595 24.0843 3.49746 20.1925ZM20.1261 28.5241C20.2484 28.1225 20.3148 27.6968 20.3148 27.2558C20.3148 26.3911 20.0608 25.5849 19.6249 24.9062C21.9964 23.9375 23.8975 22.0496 24.8821 19.6863C25.556 20.1132 26.3538 20.3615 27.2089 20.3615C27.6628 20.3615 28.1005 20.2917 28.5124 20.1624C27.1981 24.1028 24.0714 27.2211 20.1261 28.5241Z" fill="#FF4A3D"/>
</g>
<defs>
<clipPath id="clip0">
<rect width="32" height="32" fill="white"/>
</clipPath>
</defs>
</svg>
