<svg width="42" height="42" viewBox="0 0 42 42" fill="none" xmlns="http://www.w3.org/2000/svg">
<path d="M20.1635 21.1812C20.1635 19.4506 19.7364 17.7768 18.9167 16.3397L18.7224 15.9997H6.55813L6.36788 16.3397C5.55018 17.7748 5.12109 19.4506 5.12109 21.1812C5.12109 25.5955 7.9304 29.2529 11.5756 29.858V40.1663C9.47269 40.2513 7.90612 40.5711 7.90612 40.9495C7.90612 41.3989 10.0414 41.7591 12.6767 41.7591C15.314 41.7591 17.4533 41.3989 17.4533 40.9495C17.4533 40.5711 15.8867 40.2513 13.7838 40.1663V29.8499C17.3926 29.2063 20.1635 25.5631 20.1635 21.1812ZM12.6402 28.6011C9.23588 28.6011 6.46301 25.2737 6.46301 21.1771C6.46301 19.8129 6.76863 18.4953 7.35356 17.3396H17.929C18.5119 18.4953 18.8215 19.815 18.8215 21.1771C18.8236 25.2757 16.0466 28.6011 12.6402 28.6011ZM33.0422 4.63901H27.6927V0H33.0422V4.63901ZM33.0422 10.3872V6.06593H27.6927V10.3892C25.4339 11.4073 23.8552 13.6782 23.8552 16.3215V20.5578V34.0639V42H36.8776V34.0639V20.5578V16.3215C36.8797 13.6782 35.305 11.4073 33.0422 10.3872ZM35.728 35.4524H25.1202V22.7255H35.728V35.4524ZM18.2609 21.3208C18.2609 21.3208 17.9796 28.0506 12.7313 28.0506C7.4831 28.0506 6.7747 21.3208 6.7747 21.3208H18.2609Z" fill="#FF4A3D"/>
</svg>
