<svg width="32" height="32" viewBox="0 0 32 32" fill="none" xmlns="http://www.w3.org/2000/svg">
<g clip-path="url(#clip0)">
<path d="M30.0563 29.8857V14.8887H24.4325V29.8857H22.5579V18.638H16.934V29.8857H15.0594V22.3872H9.43557V29.8857H7.56095V26.1364H1.9371V29.8857H0V31.7603C0.292628 31.7603 32.5279 31.7603 31.9934 31.7603V29.8857H30.0563Z" fill="#FF4A3D"/>
<path d="M5.24763 18.735C8.31219 18.735 12.8568 18.3534 17.1031 16.5364C21.2368 14.767 24.1091 11.4956 25.8895 8.82555L28.4982 10.0421L26.9989 0.239685L18.5274 5.39119L20.7809 6.44292C17.0747 12.3075 10.8239 16.173 3.86548 16.8512L3.94696 18.7213L5.24763 18.735Z" fill="#FF4A3D"/>
</g>
<defs>
<clipPath id="clip0">
<rect width="32" height="32" fill="white"/>
</clipPath>
</defs>
</svg>
