<svg width="24" height="24" viewBox="0 0 24 24" fill="none" xmlns="http://www.w3.org/2000/svg">
<g clip-path="url(#clip0)">
<path d="M6.96007 8.43408L3.57007 10.1329C3.30267 10.2654 2.98583 10.2503 2.73221 10.0931L0.214355 8.51937L0.459498 12.4425C0.589919 14.8881 1.40685 17.2474 2.81664 19.2499C5.11593 22.4569 8.32593 24.0307 12.2426 23.9998C7.25021 22.0305 6.60007 13.7998 6.96007 8.43408Z" fill="#FF4A3D"/>
<path d="M12.9907 7.71169H15.1631C15.3875 7.71103 15.5744 7.88355 15.5917 8.10726C15.6269 8.52641 16.3631 18.1813 10.7021 21.9403C11.636 22.9278 12.9177 23.5128 14.2756 23.5714L14.6184 23.5903C15.5942 23.2326 16.475 22.6561 17.1933 21.9051C21.3594 17.6297 21.1661 8.25041 21.1636 8.15612C21.1606 8.04054 21.2044 7.92865 21.2851 7.84585C21.3658 7.76305 21.4765 7.71637 21.5921 7.71641H23.735L18.167 0.00683594L12.9907 7.71169Z" fill="#FF4A3D"/>
</g>
<defs>
<clipPath id="clip0">
<rect width="24" height="24" fill="white"/>
</clipPath>
</defs>
</svg>
