<?xml version="1.0" encoding="UTF-8"?>
<svg xmlns="http://www.w3.org/2000/svg" xmlns:xlink="http://www.w3.org/1999/xlink" viewBox="0 0 3260.7 789.46">
  <defs>
    <style>
      .cls-1 {
        fill: #fff;
      }

      .cls-2 {
        fill: #e1001a;
      }

      .cls-3 {
        fill: #1a171b;
      }

      .cls-4 {
        fill: #4d4d4d;
      }

      .cls-5 {
        fill: #999;
      }

      .cls-5, .cls-6 {
        mix-blend-mode: multiply;
      }

      .cls-6 {
        fill: url(#linear-gradient);
        opacity: .8;
      }

      .cls-7 {
        fill: url(#linear-gradient-2);
      }

      .cls-8 {
        isolation: isolate;
      }
    </style>
    <linearGradient id="linear-gradient" x1="301.32" y1="520.08" x2="461.65" y2="324.6" gradientUnits="userSpaceOnUse">
      <stop offset="0" stop-color="#999"/>
      <stop offset="1" stop-color="#e6e6e6"/>
    </linearGradient>
    <linearGradient id="linear-gradient-2" x1="3.89" y1="394.73" x2="1064.84" y2="394.73" gradientUnits="userSpaceOnUse">
      <stop offset="0" stop-color="#999"/>
      <stop offset=".51" stop-color="#e6e6e6"/>
      <stop offset="1" stop-color="gray"/>
    </linearGradient>
  </defs>
  <g class="cls-8">
    <g id="Calque_1" data-name="Calque 1">
      <g>
        <path class="cls-2" d="M71.82,209.09c0,15.42,.65,30.68,1.87,45.73,23.49,44.13,68.38,125.14,98.86,159.25,38.32,42.88,276.86,216.19,346.83,268.9,156.43-18.76,286.54-141.83,339.08-308.98,0,0-314.3,1.39-544.3-49.86-218.55-48.7-242.34-115.03-242.34-115.03"/>
        <path class="cls-4" d="M64.55,49.88C-97.17,476.56,623.49,713.47,623.49,713.47c172.65-66.47,296.28-245.46,296.28-455.81,0-74.37-15.47-144.82-43.09-207.76,0,0,231.21,367.22-183.63,683.04,0,0-551.23-160.55-620.37-402.29C3.53,88.93,64.55,49.88,64.55,49.88Z"/>
        <path class="cls-5" d="M126.32,258.39c77.22,141.98,282.54,371.45,677.96,371.45,0,0-32.4,33.63-55.59,57.38,0,0-558.27-27.23-676.87-478.13,0,0,5.6,13.17,25.47,29.11,15.3,12.28,29.03,20.19,29.03,20.19Z"/>
        <path class="cls-6" d="M71.82,209.09s23.79,66.33,242.34,115.03c230,51.25,544.3,49.86,544.3,49.86-52.54,167.16-182.66,290.22-339.08,308.98-69.97-52.7-308.51-226.02-346.83-268.9-30.48-34.11-75.37-115.12-98.86-159.25-1.22-15.05-1.87-30.31-1.87-45.73"/>
        <path class="cls-7" d="M131.74,0c-16.23,11.16-30.1,24.56-41.16,40.25C.65,167.68,128.09,397.03,375.23,552.52c247.14,155.49,520.39,178.22,610.3,50.79,47.13-66.75,34.55-161.47-23.61-258.9,101.11,130.16,133.71,264.04,70.82,353.18-100.16,141.91-404.47,116.59-679.72-56.57C77.79,467.85-64.15,212.42,36,70.5,58.5,38.63,91.3,15.21,131.74,0Z"/>
        <path class="cls-2" d="M7.46,271.74s62.58,301.99,407.23,418.83c0,0-352.57-1.55-407.23-418.83Z"/>
        <path class="cls-1" d="M735.69,124.37s43.32,219.67-78.77,452.75c0,0,61.05-4.88,130.96-255.06,69.9-250.18-52.19-197.69-52.19-197.69Z"/>
      </g>
      <g>
        <path class="cls-3" d="M1186.09,127.21l86.33,237.11,86.33-237.11h16.41l-102.73,282.62-102.73-282.62h16.41Z"/>
        <path class="cls-3" d="M1423.3,178.38c3.06,3,4.59,6.58,4.59,10.74,0,4.43-1.53,8.14-4.59,11.13-3.06,3-6.67,4.49-10.84,4.49s-7.98-1.49-11.03-4.49c-3.06-2.99-4.59-6.7-4.59-11.13,0-4.16,1.53-7.74,4.59-10.74,3.06-2.99,6.74-4.49,11.03-4.49s7.78,1.5,10.84,4.49Zm-3.22,55.47v169.53h-15.43V233.85h15.43Z"/>
        <path class="cls-3" d="M1624.77,369.79c-3,3.65-6.12,7.17-9.38,10.55-18.49,18.62-40.89,27.93-67.19,27.93s-48.34-9.28-66.89-27.83c-18.55-18.55-27.83-40.85-27.83-66.89s9.28-48.66,27.83-67.09c18.55-18.42,40.85-27.64,66.89-27.64s48.7,9.18,67.19,27.54c3.52,3.65,6.77,7.49,9.77,11.52v-24.02h15.62v131.64c0,25.53-9.05,47.27-27.15,65.23-18.49,18.61-40.82,27.93-66.99,27.93s-48.56-9.32-67.19-27.93c-3.78-3.78-7.16-7.69-10.16-11.72l16.41-6.05c1.69,2.08,3.58,4.1,5.66,6.05,15.23,15.36,33.66,23.05,55.27,23.05s39.91-7.69,55.27-23.05c13.94-13.94,21.55-30.33,22.85-49.22Zm.19-72.46c-3-14.84-10.09-27.93-21.29-39.26-15.36-15.36-33.86-23.05-55.47-23.05s-40.07,7.68-55.37,23.05c-15.3,15.37-22.95,33.86-22.95,55.47s7.65,40.08,22.95,55.37c15.3,15.3,33.76,22.95,55.37,22.95s40.11-7.68,55.47-23.05c11.06-11.06,18.16-24.02,21.29-38.87v-32.62Z"/>
        <path class="cls-3" d="M1689.8,271.74v131.64h-15.62V233.85h15.62v10.94c14.06-14.06,30.47-21.09,49.22-21.09,20.05,0,36.36,6.29,48.92,18.85,12.57,12.57,18.97,28.36,19.24,47.36v113.48h-15.43v-111.91c0-14.45-5.2-26.76-15.62-36.91-10.42-10.16-22.78-15.23-37.11-15.23s-26.49,5.02-36.91,15.04c-5.6,5.6-9.7,11.4-12.3,17.38Z"/>
        <path class="cls-3" d="M1935.31,218.61c26.3,0,48.66,9.25,67.09,27.73,18.43,18.5,27.64,40.89,27.64,67.19s-9.21,48.34-27.64,66.89c-18.43,18.55-40.79,27.83-67.09,27.83s-48.34-9.28-66.89-27.83c-18.55-18.55-27.83-40.85-27.83-66.89s9.28-48.69,27.83-67.19c18.55-18.49,40.85-27.73,66.89-27.73Zm-55.37,39.45c-15.3,15.37-22.95,33.86-22.95,55.47s7.65,40.04,22.95,55.27c15.3,15.23,33.76,22.85,55.37,22.85s40.07-7.62,55.37-22.85c15.3-15.23,22.95-33.65,22.95-55.27s-7.65-40.1-22.95-55.47c-15.3-15.36-33.76-23.05-55.37-23.05s-40.07,7.68-55.37,23.05Z"/>
        <path class="cls-3" d="M2063.44,127.21h15.62v130.47c2.86-3.91,6.12-7.68,9.76-11.33,18.49-18.49,40.82-27.73,66.99-27.73s48.51,9.25,66.99,27.73c18.49,18.5,27.73,40.89,27.73,67.19s-9.25,48.34-27.73,66.89c-18.49,18.55-40.82,27.83-66.99,27.83s-48.51-9.31-66.99-27.93c-3.64-3.64-6.9-7.42-9.76-11.33v34.37h-15.62V127.21Zm15.62,170.12v32.42c2.86,14.72,9.96,27.68,21.29,38.87,15.36,15.37,33.86,23.05,55.47,23.05s40.07-7.62,55.37-22.85c15.3-15.23,22.95-33.65,22.95-55.27s-7.65-40.1-22.95-55.47c-15.3-15.36-33.76-23.05-55.37-23.05s-40.11,7.68-55.47,23.05c-11.33,11.33-18.43,24.41-21.29,39.26Z"/>
        <path class="cls-3" d="M2302.1,127.21V403.38h-15.62V127.21h15.62Z"/>
        <path class="cls-2" d="M2350.74,304.75c-.39,2.73-.59,5.66-.59,8.79,0,21.62,7.66,40.04,22.95,55.27,15.31,15.23,33.77,22.85,55.37,22.85s40.12-7.68,55.47-23.05c2.62-2.6,5.08-5.33,7.42-8.2l16.6,5.86c-1.95,3.26-6.05,7.95-12.3,14.06-18.48,18.62-40.88,27.93-67.19,27.93s-48.34-9.28-66.89-27.83c-18.55-18.55-27.83-40.85-27.83-66.89s9.28-48.69,27.83-67.19c18.55-18.49,40.86-27.73,66.89-27.73s48.71,9.25,67.19,27.73c16.29,16.41,24.41,35.88,24.41,58.4h-169.34Zm2.93-15.82h148.83c-3.63-11.85-9.82-22.13-18.55-30.86-15.35-15.36-33.85-23.05-55.47-23.05s-40.1,7.68-55.47,23.05c-9.1,9.25-15.55,19.53-19.34,30.86Z"/>
        <path class="cls-3" d="M2644.29,233.85l-43.55,75.59-.59,.98,.59,.78,53.12,92.19h-17.97l-44.14-76.37-44.14,76.37h-18.16l53.32-92.19,.59-.78-.59-.98-43.75-75.59h17.97l34.76,59.96,34.57-59.96h17.97Z"/>
        <path class="cls-3" d="M2674.17,233.85h15.62v23.83c2.87-3.91,6.13-7.68,9.77-11.33,18.5-18.36,40.82-27.54,66.99-27.54s48.52,9.22,66.99,27.64c18.5,18.43,27.73,40.79,27.73,67.09s-9.24,48.34-27.73,66.89c-18.48,18.55-40.82,27.83-66.99,27.83s-48.5-9.31-66.99-27.93c-3.63-3.64-6.9-7.42-9.77-11.33v99.02h-15.62V233.85Zm15.62,63.48v32.42c2.87,14.84,9.96,27.87,21.29,39.06,15.37,15.37,33.87,23.05,55.47,23.05s40.08-7.65,55.37-22.95c15.31-15.29,22.95-33.75,22.95-55.37s-7.64-40.1-22.95-55.47c-15.29-15.36-33.75-23.05-55.37-23.05s-40.1,7.68-55.47,23.05c-11.33,11.33-18.42,24.41-21.29,39.26Z"/>
        <path class="cls-3" d="M2981.79,218.61c26.31,0,48.67,9.25,67.09,27.73,18.44,18.5,27.64,40.89,27.64,67.19s-9.2,48.34-27.64,66.89c-18.42,18.55-40.78,27.83-67.09,27.83s-48.34-9.28-66.89-27.83c-18.55-18.55-27.83-40.85-27.83-66.89s9.28-48.69,27.83-67.19c18.55-18.49,40.86-27.73,66.89-27.73Zm-55.37,39.45c-15.29,15.37-22.95,33.86-22.95,55.47s7.66,40.04,22.95,55.27c15.31,15.23,33.77,22.85,55.37,22.85s40.08-7.62,55.37-22.85c15.31-15.23,22.95-33.65,22.95-55.27s-7.64-40.1-22.95-55.47c-15.29-15.36-33.75-23.05-55.37-23.05s-40.06,7.68-55.37,23.05Z"/>
        <path class="cls-3" d="M3169.88,247.52c-8.46,1.7-17.05,6.97-25.78,15.82-14.71,14.59-22.32,32.1-22.85,52.54v87.5h-15.62V233.85h15.62v30.86c3.12-4.55,6.84-8.98,11.13-13.28,9.51-9.5,19.14-15.82,28.91-18.94l8.59,15.04Z"/>
        <path class="cls-3" d="M3210.7,233.85v-72.07h15.43v72.07h34.57v15.62h-34.57v153.91h-15.43V249.47h-34.57v-15.62h34.57Z"/>
      </g>
      <g>
        <path d="M1299.08,566.46c30.79,0,53.37,22.37,53.37,57.48s-22.78,57.89-53.37,57.89c-22.37,0-37.77-11.7-44.54-26.27v24.63h-14.16v-151.9h14.16v64.66c6.98-14.78,22.58-26.48,44.54-26.48Zm-2.87,12.52c-22.78,0-41.67,17.24-41.67,45.16s18.88,45.16,41.67,45.16,41.67-17.04,41.67-45.36-18.06-44.95-41.67-44.95Z"/>
        <path d="M1456.52,568.1h14.78l-66.51,164.83h-14.98l21.76-53.37-45.98-111.46h15.81l38.18,95.66,36.95-95.66Z"/>
        <path d="M1639.21,613.05h-77.8v67.12h-14.37v-143.48h14.37v64.45h77.8v-64.45h14.37v143.48h-14.37v-67.12Z"/>
        <path d="M1683.14,536.28c0-6.16,4.72-10.47,10.47-10.47s10.47,4.31,10.47,10.47-4.72,10.68-10.47,10.68-10.47-4.52-10.47-10.68Zm3.28,31.82h14.37v112.08h-14.37v-112.08Z"/>
        <path d="M1733.43,528.28h14.37v151.9h-14.37v-151.9Z"/>
        <path d="M1780.44,528.28h14.37v151.9h-14.37v-151.9Z"/>
        <path d="M1875.89,681.82c-31.82,0-55.01-22.17-55.01-57.68s22.78-57.68,55.01-57.68,52.96,23.4,52.96,51.93c0,4.52,0,7.39-.41,11.29h-92.99c1.23,26.27,19.5,40.03,40.44,40.03,19.09,0,32.02-10.06,36.13-25.04h15.19c-5.13,21.14-23.2,37.15-51.32,37.15Zm-40.44-63.84h78.82c.62-26.07-18.27-39.21-39-39.21s-38.18,13.14-39.82,39.21Z"/>
        <path d="M2013.83,566.46c30.79,0,53.37,22.37,53.37,57.48s-22.78,57.89-53.37,57.89c-22.37,0-37.77-11.7-44.54-26.27v24.63h-14.16v-151.9h14.16v64.66c6.98-14.78,22.58-26.48,44.54-26.48Zm-2.87,12.52c-22.78,0-41.67,17.24-41.67,45.16s18.88,45.16,41.67,45.16,41.67-17.04,41.67-45.36-18.06-44.95-41.67-44.95Z"/>
        <path d="M2108.05,680.18h-14.37v-112.08h14.37v19.91c6.16-13.75,19.09-21.96,38.39-21.96v14.98h-3.9c-18.68,0-34.49,8.42-34.49,36.54v62.61Z"/>
        <path d="M2215,566.46c22.58,0,37.97,12.11,44.34,26.27v-24.63h14.37v112.08h-14.37v-24.84c-6.57,14.37-22.17,26.48-44.54,26.48-30.59,0-53.37-22.78-53.37-57.89s22.78-57.48,53.57-57.48Zm2.67,12.52c-23.61,0-41.67,16.42-41.67,44.95s18.06,45.36,41.67,45.36,41.67-17.24,41.67-45.16-18.68-45.16-41.67-45.16Z"/>
        <path d="M2390.5,616.13c0-24.84-13.55-37.56-34.07-37.56s-35.51,13.14-35.51,40.44v61.17h-14.37v-112.08h14.37v19.09c7.18-13.96,21.55-21.14,38.18-21.14,25.45,0,45.57,15.6,45.57,48.44v65.69h-14.16v-64.04Z"/>
        <path d="M2483.7,566.46c20.12,0,36.95,11.08,44.13,25.86v-64.04h14.37v151.9h-14.37v-25.04c-6.57,14.78-22.17,26.69-44.34,26.69-30.79,0-53.57-22.78-53.57-57.89s22.78-57.48,53.78-57.48Zm2.46,12.52c-23.61,0-41.67,16.42-41.67,44.95s18.06,45.36,41.67,45.36,41.67-17.24,41.67-45.16-18.68-45.16-41.67-45.16Z"/>
        <path d="M2761.01,578.57h-16.83c-8-18.47-25.45-30.38-48.44-30.38-31.82,0-56.24,22.99-56.24,60.14s24.43,60.35,56.24,60.35c30.17,0,52.34-20.32,54.6-52.96h-60.35v-11.7h75.54v10.47c-2.26,37.97-30.59,67.12-69.79,67.12s-71.02-30.17-71.02-73.28,30.79-73.28,71.02-73.28c30.79,0,55.01,16.22,65.27,43.52Z"/>
        <path d="M2840.87,681.82c-31.61,0-55.63-22.17-55.63-57.68s24.63-57.68,56.04-57.68,56.04,21.96,56.04,57.68-24.84,57.68-56.45,57.68Zm0-12.52c21.14,0,41.67-14.37,41.67-45.16s-20.12-45.16-41.46-45.16-41.26,14.37-41.26,45.16,19.71,45.16,41.05,45.16Z"/>
        <path d="M2937.96,680.18h-14.37v-112.08h14.37v19.91c6.16-13.75,19.09-21.96,38.39-21.96v14.98h-3.9c-18.68,0-34.49,8.42-34.49,36.54v62.61Z"/>
        <path d="M2994.62,536.28c0-6.16,4.72-10.47,10.47-10.47s10.47,4.31,10.47,10.47-4.72,10.68-10.47,10.68-10.47-4.52-10.47-10.68Zm3.28,31.82h14.37v112.08h-14.37v-112.08Z"/>
      </g>
    </g>
  </g>
</svg>