<svg width="42" height="42" viewBox="0 0 42 42" fill="none" xmlns="http://www.w3.org/2000/svg">
<g clip-path="url(#clip0)">
<path d="M22.8173 10.4276C22.8173 8.53765 22.8173 0 22.8173 0H21.4137H20.5826H19.1797C19.1797 0 19.1797 8.53765 19.1797 10.4276C19.1797 12.3176 15.6267 14.6118 15.6267 17.3054C15.6267 19.9984 15.6267 39.4801 15.6267 40.1671C15.6267 40.8542 16.0863 42 17.1161 42C17.8172 42 19.5444 42 20.5839 42C21.0748 42 21.415 42 21.415 42C22.4546 42 24.181 42 24.8822 42C25.9128 42 26.3729 40.8541 26.3729 40.1671C26.3729 39.48 26.3729 19.9983 26.3729 17.3054C26.3728 14.6118 22.8173 12.3188 22.8173 10.4276ZM19.9648 13.4897C19.7348 13.8037 19.4778 14.1998 19.1984 14.6567C18.9158 15.1149 18.648 15.6488 18.3756 16.2281C18.2718 16.5242 18.1653 16.8344 18.0763 17.1451C18.0731 17.4745 17.9686 17.7175 18.0142 18.1308C18.0418 18.8973 18.0719 19.7035 18.1026 20.5379C18.1577 22.2074 18.168 23.9891 18.1821 25.7694C18.1782 29.3312 18.0706 32.8945 17.904 35.5656C17.831 36.9013 17.7111 38.0137 17.6547 38.7931C17.5855 39.5724 17.5278 40.0184 17.5278 40.0184C17.5278 40.0184 17.4696 39.5724 17.4003 38.7931C17.3439 38.0138 17.224 36.9014 17.151 35.5656C16.9844 32.8945 16.8766 29.3312 16.8729 25.7694C16.8856 23.989 16.8959 22.2074 16.9523 20.5379C16.9831 19.7036 17.0132 18.8973 17.0408 18.1308C17.0273 17.7752 17.1612 17.292 17.2376 16.9074C17.3856 16.5453 17.5496 16.2094 17.7061 15.8929C17.8965 15.6019 18.0765 15.3231 18.2495 15.0585C18.4463 14.8169 18.6327 14.5888 18.807 14.3721C19.1698 13.9542 19.4921 13.6011 19.7735 13.3255C20.3297 12.7693 20.6867 12.4963 20.6867 12.4963C20.6867 12.4963 20.4083 12.8519 19.9648 13.4897Z" fill="#FF4A3D"/>
<g clip-path="url(#clip1)">
<path d="M-9.53674e-06 10C-6.06544 10 -11 14.9346 -11 21C-11 27.0654 -6.06544 32 -9.53674e-06 32C6.06542 32 11.0001 27.0654 11.0001 21C11.0001 14.9346 6.06542 10 -9.53674e-06 10ZM8.60225 18.1383C8.31912 18.0495 8.0182 18.0014 7.70615 18.0014C7.11822 18.0014 6.56977 18.1721 6.10643 18.4656C5.42962 16.8408 4.12251 15.5429 2.49213 14.8769C2.7918 14.4103 2.9664 13.8561 2.9664 13.2615C2.9664 12.9583 2.92074 12.6657 2.83668 12.3896C5.54908 13.2855 7.6987 15.4293 8.60225 18.1383ZM-2.9078 12.4129C-2.98741 12.6822 -3.03084 12.9669 -3.03084 13.2616C-3.03084 13.8648 -2.85121 14.4265 -2.54351 14.8973C-4.16103 15.5739 -5.45353 16.8756 -6.11941 18.4987C-6.59329 18.1848 -7.1608 18.0014 -7.77059 18.0014C-8.05671 18.0014 -8.33326 18.0425 -8.5955 18.1176C-7.69591 15.4421 -5.57995 13.3201 -2.9078 12.4129ZM-8.5955 23.8823C-8.33326 23.9575 -8.05671 23.9986 -7.77059 23.9986C-7.1608 23.9986 -6.59329 23.8152 -6.11941 23.5013C-5.45353 25.1244 -4.16103 26.4261 -2.54361 27.1027C-2.85131 27.5735 -3.03093 28.1352 -3.03093 28.7384C-3.03093 29.0331 -2.9875 29.3178 -2.90789 29.5871C-5.57995 28.6799 -7.69591 26.558 -8.5955 23.8823ZM2.83668 29.6103C2.92074 29.3342 2.9664 29.0415 2.9664 28.7384C2.9664 28.1439 2.7918 27.5896 2.49213 27.123C4.12251 26.457 5.42952 25.1591 6.10643 23.5343C6.56977 23.8278 7.11822 23.9985 7.70615 23.9985C8.0182 23.9985 8.31912 23.9505 8.60225 23.8616C7.6987 26.5707 5.54908 28.7145 2.83668 29.6103Z" fill="#FF4A3D"/>
</g>
</g>
<defs>
<clipPath id="clip0">
<rect width="42.0001" height="42" fill="white"/>
</clipPath>
<clipPath id="clip1">
<rect width="22" height="22" fill="white" transform="translate(-11 10)"/>
</clipPath>
</defs>
</svg>
